<svg data-name="Ebene 1" id="a8b57828-f2e0-48e8-beaa-1790ea5af558" viewBox="0 0 63.92 46.07"
     xmlns="http://www.w3.org/2000/svg">
  <defs>
    <style>.a120928e-5eed-400d-8ed8-852857dffe56 {
      fill: #ec6252;
    }</style>
  </defs>
  <path class="a120928e-5eed-400d-8ed8-852857dffe56"
        d="M32,8.92A23,23,0,1,0,55,32,23,23,0,0,0,32,8.92Zm0,42A18.9,18.9,0,1,1,50.92,32,18.9,18.9,0,0,1,32,50.94Z"
        transform="translate(-0.27 -8.92)"/>
  <path class="a120928e-5eed-400d-8ed8-852857dffe56"
        d="M8.56,10.49,11.8,13s-16.61,18,0,37.77L8.46,53.38S-10,33.38,8.56,10.49Z" transform="translate(-0.27 -8.92)"/>
  <path class="a120928e-5eed-400d-8ed8-852857dffe56"
        d="M55.9,53.38l-3.24-2.47s16.62-18,0-37.77L56,10.49S74.5,30.5,55.9,53.38Z" transform="translate(-0.27 -8.92)"/>
  <path class="a120928e-5eed-400d-8ed8-852857dffe56"
        d="M23.93,25.32H21.18l-4,14h2.21l1.13-2.67,3.61-.07.92,2.7h2.53ZM21,33.46,22.31,29l1.54,4.45Z"
        transform="translate(-0.27 -8.92)"/>
  <path class="a120928e-5eed-400d-8ed8-852857dffe56"
        d="M36.89,32.09a2.43,2.43,0,0,0,1.08-2v-2.3a2.43,2.43,0,0,0-2.43-2.44H28.83V39.25H36a2.43,2.43,0,0,0,2.43-2.44V34.36A2.45,2.45,0,0,0,36.89,32.09Zm-1.34,2.85a1,1,0,0,1-1,1h-2a1,1,0,0,1-1-1v-.46a1,1,0,0,1,1-1h2a1,1,0,0,1,1,1Zm0-5.52a1,1,0,0,1-1,1h-2a1,1,0,0,1-1-1V29a1,1,0,0,1,1-1h2a1,1,0,0,1,1,1Z"
        transform="translate(-0.27 -8.92)"/>
  <path class="a120928e-5eed-400d-8ed8-852857dffe56" d="M52.44,24.08" transform="translate(-0.27 -8.92)"/>
  <path class="a120928e-5eed-400d-8ed8-852857dffe56" d="M55.33,24.75" transform="translate(-0.27 -8.92)"/>
  <path class="a120928e-5eed-400d-8ed8-852857dffe56"
        d="M48,32.2a.38.38,0,0,1-.11-.11c-.8-1.25-3.39-1.37-3.39-1.37-1.09,0-2-.65-2-1.45s.88-1.46,2-1.46,2,.65,2,1.46a1.2,1.2,0,0,0,1.56,0,3.51,3.51,0,0,0,.68-.91,4.51,4.51,0,0,0-4.28-3.76,4.62,4.62,0,0,0-4.39,4.83,5.25,5.25,0,0,0,.43,2.07,1,1,0,0,1,.12.16c.65,1.4,3.4,2,3.4,2,1.16.22,2,1,1.85,1.83s-1.19,1.25-2.36,1-2-1-1.86-1.82A1.37,1.37,0,0,0,40,34.42a3.29,3.29,0,0,0-.53.38,4.58,4.58,0,1,0,9.16-.19,5,5,0,0,0-.6-2.38Z"
        transform="translate(-0.27 -8.92)"/>
</svg>
