<svg data-name="Ebene 1" id="a12fb4ee-8e58-409d-b34c-9c9cce80c337" viewBox="0 0 37.91 35.19"
     xmlns="http://www.w3.org/2000/svg">
  <defs>
    <style>.ef214453-eeea-4889-891b-629af9470a74 {
      fill: #ec6252;
    }</style>
  </defs>
  <circle class="ef214453-eeea-4889-891b-629af9470a74" cx="14.76" cy="7.5" r="7.5"/>
  <circle class="ef214453-eeea-4889-891b-629af9470a74" cx="29.4" cy="5.71" r="4"/>
  <polygon class="ef214453-eeea-4889-891b-629af9470a74"
           points="33.33 11.86 33.33 15.07 37.91 13.43 37.91 10.51 33.33 11.86"/>
  <path class="ef214453-eeea-4889-891b-629af9470a74"
        d="M31.25,40.9l-1.59-5.29-4.39-1a1.61,1.61,0,0,0-1.72.65l-8.19,10.4a1.93,1.93,0,0,0,0,1.92,5.15,5.15,0,0,0,1.44,1.5,2.17,2.17,0,0,0,2.54-.47l6.79-9.1Z"
        transform="translate(-15.07 -14.36)"/>
  <polygon class="ef214453-eeea-4889-891b-629af9470a74"
           points="16.16 21.82 19.09 22.63 23.5 35.11 20.52 35.19 16.16 21.82"/>
  <path class="ef214453-eeea-4889-891b-629af9470a74"
        d="M35.94,36.39l1.28,4.54s.31,1.15,1.27,1.2A4.3,4.3,0,0,0,40,42a1.93,1.93,0,0,0,1.15-1c.5-.86,5.67-11.17,5.67-11.17a3.74,3.74,0,0,0-.23-2.64,4.47,4.47,0,0,0-1.43-1.38,3.11,3.11,0,0,0-1.76-.41,4,4,0,0,0-1.55.37,2.74,2.74,0,0,0-1,.74C40.49,27,35.94,36.39,35.94,36.39Z"
        transform="translate(-15.07 -14.36)"/>
</svg>
