<svg data-name="Ebene 1" id="ebe78ff0-1057-4c6b-88f6-772c9899f75d" viewBox="0 0 54.38 39"
     xmlns="http://www.w3.org/2000/svg">
  <defs>
    <style>.b3475005-b53b-475b-84a4-02af026e77d9, .e48b62d3-d162-4fd2-88db-d1f7a5cccf60 {
      fill: #ec6252;
    }
    </style>
  </defs>
  <path class="b3475005-b53b-475b-84a4-02af026e77d9"
        d="M33,13.76a19.5,19.5,0,1,0,19.5,19.5A19.5,19.5,0,0,0,33,13.76Zm0,35.57a16,16,0,1,1,16-16A16,16,0,0,1,33,49.33Z"
        transform="translate(-6.17 -13.76)"/>
  <path class="b3475005-b53b-475b-84a4-02af026e77d9"
        d="M10.69,26.77a27.07,27.07,0,0,1,5.23-9.59l-2.74-2.09a31.58,31.58,0,0,0-5.84,10.5Z"
        transform="translate(-6.17 -13.76)"/>
  <g class="b625031d-effe-489b-87b3-5f1e552bc421">
    <path class="e48b62d3-d162-4fd2-88db-d1f7a5cccf60"
          d="M10.3,38.57a21.68,21.68,0,0,1-.28-9L6.64,28.36A25.36,25.36,0,0,0,7,39.63Z"
          transform="translate(-6.17 -13.76)"/>
    <path class="e48b62d3-d162-4fd2-88db-d1f7a5cccf60"
          d="M11.33,41.73,8,42.79a29.56,29.56,0,0,0,5.07,8.61l2.83-2.24A28.11,28.11,0,0,1,11.33,41.73Z"
          transform="translate(-6.17 -13.76)"/>
  </g>
  <path class="b3475005-b53b-475b-84a4-02af026e77d9"
        d="M56,39.71A27.07,27.07,0,0,1,50.8,49.3l2.74,2.1a32,32,0,0,0,5.84-10.5Z" transform="translate(-6.17 -13.76)"/>
  <g class="b625031d-effe-489b-87b3-5f1e552bc421">
    <path class="e48b62d3-d162-4fd2-88db-d1f7a5cccf60"
          d="M56.42,27.91a21.67,21.67,0,0,1,.27,9l3.39,1.2a25.25,25.25,0,0,0-.37-11.28Z"
          transform="translate(-6.17 -13.76)"/>
    <path class="e48b62d3-d162-4fd2-88db-d1f7a5cccf60"
          d="M55.38,24.76l3.32-1.07a29.3,29.3,0,0,0-5.08-8.6L50.8,17.33A27.9,27.9,0,0,1,55.38,24.76Z"
          transform="translate(-6.17 -13.76)"/>
  </g>
</svg>
