<svg data-name="Ebene 1" id="a4f6103f-f05e-40d4-a26c-ebac83ea35a5" viewBox="0 0 46.86 47.06"
     xmlns="http://www.w3.org/2000/svg">
  <defs>
    <style>.ee16d93d-2174-4016-b944-30655117c6ad {
      fill: #ec6252;
    }</style>
  </defs>
  <rect class="ee16d93d-2174-4016-b944-30655117c6ad" height="22.3" rx="1.72" width="3.43" x="22.17" y="9.28"/>
  <circle class="ee16d93d-2174-4016-b944-30655117c6ad" cx="23.91" cy="36" r="2.16"/>
  <path class="ee16d93d-2174-4016-b944-30655117c6ad"
        d="M52.49,31.93a4.79,4.79,0,0,0-1.64-8.73,4.8,4.8,0,0,0-5.73-6.94A4.79,4.79,0,0,0,37.6,12a4.83,4.83,0,0,0-4.41-2.88,4.77,4.77,0,0,0-4,2.24,4.79,4.79,0,0,0-7.94,2.28A4.78,4.78,0,0,0,15.12,19a4.8,4.8,0,0,0-3.8,7.44A4.79,4.79,0,0,0,10.63,35a4.79,4.79,0,0,0,3.18,8.18A4.8,4.8,0,0,0,20,49.73,4.78,4.78,0,0,0,28.42,53a4.79,4.79,0,0,0,9.14-.48,4.79,4.79,0,0,0,8-4.27A4.79,4.79,0,0,0,50.83,41a4.79,4.79,0,0,0,1.66-9Zm-20.66,20a19.5,19.5,0,1,1,19.5-19.5A19.5,19.5,0,0,1,31.83,51.92Z"
        transform="translate(-8.27 -9.11)"/>
</svg>
