<svg data-name="Ebene 1" id="f4b997cb-a53c-4caf-988f-bd6327095773" viewBox="0 0 54.12 39"
     xmlns="http://www.w3.org/2000/svg">
  <defs>
    <style>.f6965d7a-43a3-4586-a636-a98280e056e1 {
      fill: #fff;
      opacity: 0.2;
    }</style>
  </defs>
  <path class="f6965d7a-43a3-4586-a636-a98280e056e1"
        d="M33,13.76a19.5,19.5,0,1,0,19.5,19.5A19.5,19.5,0,0,0,33,13.76Zm0,35.57a16,16,0,1,1,16-16A16,16,0,0,1,33,49.33Z"
        transform="translate(-6.16 -13.76)"/>
  <rect class="f6965d7a-43a3-4586-a636-a98280e056e1" height="22.3" rx="1.72" width="3.43" x="25" y="5.11"/>
  <circle class="f6965d7a-43a3-4586-a636-a98280e056e1" cx="26.73" cy="31.83" r="2.16"/>
  <path class="f6965d7a-43a3-4586-a636-a98280e056e1"
        d="M13.18,15.09l2.74,2.09s-14.07,15.27,0,32L13.09,51.4S-2.57,34.46,13.18,15.09Z"
        transform="translate(-6.16 -13.76)"/>
  <path class="f6965d7a-43a3-4586-a636-a98280e056e1"
        d="M53.25,51.4l-2.74-2.1s14.07-15.27,0-32l2.83-2.24S69,32,53.25,51.4Z" transform="translate(-6.16 -13.76)"/>
</svg>
