<svg data-name="Ebene 1" id="a4708bfa-f35d-400f-ad89-9fea38a70e0c" viewBox="0 0 57.04 43.72"
     xmlns="http://www.w3.org/2000/svg">
  <defs>
    <style>.e455bdf8-8bce-477b-8a0e-614a7c5cf699 {
      fill: #ec6252;
    }</style>
  </defs>
  <rect class="e455bdf8-8bce-477b-8a0e-614a7c5cf699" height="21.84" width="3.61" y="12.21"/>
  <path class="e455bdf8-8bce-477b-8a0e-614a7c5cf699"
        d="M57.41,17.29H50.87L49,25.76H47.84l-3.5-8.57H41.13V13.46H33.38v-2.2h6.48V7.65h-24v3.61h6.63v2.2H14.07v3.43H8v28h7.08l5.33,6.33H44.58l3-7.66H49l2.5,7.77h5.89C62.47,30.11,57.41,17.29,57.41,17.29ZM54.76,47.5H53.9l-2.45-7.68H45.14l-2.88,7.66H22l-5.36-6.34-5.13-.06V20.62h6.08V17.25H37.73v3.67h4.35l3.46,8.5H51.6l2-8.32h1.16S57.71,31.43,54.76,47.5Z"
        transform="translate(-2.62 -7.65)"/>
</svg>
