<svg data-name="Ebene 1" id="f5474628-eb0e-4744-a55c-28bc68613f0c" viewBox="0 0 64.19 42.12"
     xmlns="http://www.w3.org/2000/svg">
  <defs>
    <style>.edac36e6-2343-49c0-95bc-32de68e23775 {
      fill: #fff;
      stroke: #fff;
      stroke-miterlimit: 10;
      opacity: 0.2;
    }</style>
  </defs>
  <path class="edac36e6-2343-49c0-95bc-32de68e23775"
        d="M8.17,38.57,2.78,44.06s-.89.31-1.29-.24S1,42.93,1,42.67A3.93,3.93,0,0,1,1.33,42l2.46-2.5,4.43-4.64,5.41,6,5.89-6.09,5.34,5.81,5.68-5.7,6.91,7.25s.55.73.19,1.29a2.18,2.18,0,0,1-.59.69,1.49,1.49,0,0,1-1.3-.18c-.52-.43-5.18-5.34-5.18-5.34l-5.69,5.85-5.41-5.88-5.86,6.08Z"
        transform="translate(-0.02 -3.32)"/>
  <path class="edac36e6-2343-49c0-95bc-32de68e23775" d="M51,16.74" transform="translate(-0.02 -3.32)"/>
  <path class="edac36e6-2343-49c0-95bc-32de68e23775"
        d="M57.94,12.41c-.43-1.08-1-3.06-1.47-3.87h0a9,9,0,0,0-.64-.83,2,2,0,0,0-1-.74,6.09,6.09,0,0,0-2,.49L38.38,14.5,34,10.57H25.44V8h3.95V5.14H18.51V8h3.8v2.63H14.52l-.93-2.74L.52,4V17.71l11.05,2.94v7.48H39.1l15-16.88a10.69,10.69,0,0,1-.36,3.68c-.56,1.73,1.35,2.9,1.35,2.9s1.55.59,2.31-.12a3.84,3.84,0,0,0,1.32-2.05A13.19,13.19,0,0,0,57.94,12.41Zm-46.69,5-7.66-2V8l7.66,2.65Zm26.21,7.64H14.38V13.59H32.49l5.15,4.6,10.45-5.07Z"
        transform="translate(-0.02 -3.32)"/>
  <polygon class="edac36e6-2343-49c0-95bc-32de68e23775"
           points="41.88 34.91 41.88 41.59 40.02 41.59 40.02 28.61 42.93 28.61 44.75 36.72 46.69 28.68 49.43 28.68 49.43 41.62 47.5 41.62 47.5 34.91 45.46 41.61 43.86 41.61 41.88 34.91"/>
  <polygon class="edac36e6-2343-49c0-95bc-32de68e23775"
           points="51.97 28.59 54.05 28.59 54.05 41.51 52.03 41.51 51.97 28.59"/>
  <polygon class="edac36e6-2343-49c0-95bc-32de68e23775"
           points="58.38 34.91 58.38 41.56 56.59 41.56 56.59 28.61 58.91 28.61 61.92 34.91 61.92 28.55 63.69 28.55 63.69 41.51 61.78 41.51 58.38 34.91"/>
</svg>
