<svg data-name="Ebene 1" id="bad0bb25-d5d2-486a-8588-019009212af9" viewBox="0 0 53.93 45.25"
     xmlns="http://www.w3.org/2000/svg">
  <defs>
    <style>.b534c77d-ff58-4c42-b5e8-607b5ce16927 {
      fill: #ec6252;
    }</style>
  </defs>
  <path class="b534c77d-ff58-4c42-b5e8-607b5ce16927"
        d="M37.84,20.43c1,0,1.08-1.16,1.08-1.16a2.13,2.13,0,0,0-.08-.94c-.15-.59-.9-.9-.9-.9H31V14.2s5.91,0,6.68,0,1.25-.92,1.25-.92.16-.15,0-1.08a1.28,1.28,0,0,0-1.15-1H31V8a1.56,1.56,0,0,0-1.44-1A1.41,1.41,0,0,0,28,8.13V35.76a3.7,3.7,0,0,0-2.3,3.39,3.82,3.82,0,0,0,7.64,0A3.72,3.72,0,0,0,31,35.73v-9s6,0,7,0,1-1.41,1-1.41a3.89,3.89,0,0,0-.18-.94c-.18-.64-1-.64-1-.64H31V20.43S36.88,20.46,37.84,20.43Z"
        transform="translate(-2.22 -7.01)"/>
  <path class="b534c77d-ff58-4c42-b5e8-607b5ce16927"
        d="M6.5,39.78l-1.69,1c-.35.22-1.38-.2-1.38-.2a1.58,1.58,0,0,1-.65-1.17,2.17,2.17,0,0,1,.4-1.23A10,10,0,0,1,7,36.29a10.84,10.84,0,0,1,4,0,20.19,20.19,0,0,1,3.25,1.79s3.29,1.49,4.7,0,1.58-1.46,1.58-1.46a1.42,1.42,0,0,1,1.49.49,1.67,1.67,0,0,1,.29,1.71A7.08,7.08,0,0,1,19.91,41a8.26,8.26,0,0,1-6.56,0A26.54,26.54,0,0,0,10,39.22,5.16,5.16,0,0,0,6.5,39.78Z"
        transform="translate(-2.22 -7.01)"/>
  <path class="b534c77d-ff58-4c42-b5e8-607b5ce16927"
        d="M40.2,39.78l-1.7,1c-.35.22-1.37-.2-1.37-.2a1.58,1.58,0,0,1-.66-1.17,2.13,2.13,0,0,1,.41-1.23,10,10,0,0,1,3.82-1.94,10.84,10.84,0,0,1,4,0A20.46,20.46,0,0,1,48,38.08s3.28,1.49,4.69,0,1.58-1.46,1.58-1.46a1.42,1.42,0,0,1,1.49.49A1.67,1.67,0,0,1,56,38.82,7.08,7.08,0,0,1,53.6,41,8.26,8.26,0,0,1,47,41a25.86,25.86,0,0,0-3.37-1.78A5.13,5.13,0,0,0,40.2,39.78Z"
        transform="translate(-2.22 -7.01)"/>
  <path class="b534c77d-ff58-4c42-b5e8-607b5ce16927"
        d="M15.89,49.91s-2.51,2.51-5.56,2.34A14.71,14.71,0,0,1,5.11,51s-3-1.41-2.89-3.12,2.2-1.41,2.2-1.41,2.37,2.09,3.16,2.13A6.31,6.31,0,0,0,12.87,48c2.71-1.65,3-2.16,4.26-2.4a8.43,8.43,0,0,1,6.38.82l3.18,2.07s1.79,1.39,5-.62,3.58-2.71,6-2.93a9.37,9.37,0,0,1,6,1.9c1.61,1.06,2,2.56,6.61,1.65a9.62,9.62,0,0,0,3.84-2,1.34,1.34,0,0,1,1.76.87c.41,1.32.13,1.46.13,1.46a6.53,6.53,0,0,1-2.83,2.1c-1.83.68-4.9,1.53-7.72.74a11.17,11.17,0,0,1-4.77-3,4.29,4.29,0,0,0-2.36-.54,8.77,8.77,0,0,0-3.44,1.48s-3.86,2.59-5.7,2.59a11.28,11.28,0,0,1-2.87-.3s-2.72-1.52-3.57-2.2a8,8,0,0,0-2.44-1.1S18.66,48.27,15.89,49.91Z"
        transform="translate(-2.22 -7.01)"/>
</svg>
