<svg data-name="Ebene 1" id="fe0365f5-3ec8-4dfc-9764-14c58db10445" viewBox="0 0 51.8 30.83"
     xmlns="http://www.w3.org/2000/svg">
  <defs>
    <style>.f738f072-5287-4336-9742-70819d70ae10 {
      fill: #fff;
      opacity: 0.2;
    }</style>
  </defs>
  <path class="f738f072-5287-4336-9742-70819d70ae10"
        d="M55.29,20.52C49.66,14,40.62,18.64,40.62,18.64c-6.95-4.89-17.47-.16-17.47-.16C13.06,13.19,7.3,22.8,7.3,22.8a5.61,5.61,0,0,0-.91,2.44,2.14,2.14,0,0,0,1,2.54,4,4,0,0,0,2.72-.23A19.51,19.51,0,0,0,12.87,24c2.77-3.59,5-2.44,6.21-1.24-2.87,2.08-4.85,6.49-4.85,11.62,0,7.12,3.82,12.89,8.54,12.89s8.55-5.77,8.55-12.89c0-4.71-1.68-8.81-4.17-11.06a9.64,9.64,0,0,1,10.73,0c-2.47,2.26-4.13,6.35-4.13,11,0,7.12,3.82,12.89,8.54,12.89s8.55-5.77,8.55-12.89c0-4.81-1.75-9-4.33-11.21a6,6,0,0,1,3.54-.48s1.6.27,3.17,2.75,3.2,2.17,3.2,2.17S60.92,27.06,55.29,20.52ZM22.73,42.78c-1.92,0-3.48-3.74-3.48-8.35s1.56-8.35,3.48-8.35,3.48,3.74,3.48,8.35S24.65,42.78,22.73,42.78Zm19.52,0c-1.92,0-3.48-3.74-3.48-8.35s1.56-8.35,3.48-8.35,3.48,3.74,3.48,8.35S44.17,42.78,42.25,42.78Z"
        transform="translate(-6.32 -16.42)"/>
</svg>
