<svg data-name="Ebene 1" id="b6c7aef5-7f60-414d-ac8f-a92f665f48a0" viewBox="0 0 31.09 34.18"
     xmlns="http://www.w3.org/2000/svg">
  <defs>
    <style>.ab8a54bb-4019-40e3-86d6-00c997f8b5aa {
      fill: none;
      stroke: #1d1d1b;
      stroke-miterlimit: 10;
    }

    .b4254eed-3551-42c8-a6dc-a99a7a20b6cd {
      fill: #fff;
      opacity: 0.2;
    }</style>
  </defs>
  <path class="ab8a54bb-4019-40e3-86d6-00c997f8b5aa" d="M19.58,45" transform="translate(-17.67 -13.5)"/>
  <path class="b4254eed-3551-42c8-a6dc-a99a7a20b6cd"
        d="M47.14,24.47l1.62-1.09c-1.8-8.26-10.09-9.56-10.09-9.56l.15,2.3c3,1.05,5.34,5.21,5.34,5.21A20.47,20.47,0,0,1,44.82,27c-.22,2.36.87,8,1.14,10.4s-.27,3.2-.27,3.2a3.34,3.34,0,0,1-2.55,1.21C41.15,42,41,39.34,41,39.34s.06-3.72,0-8.19a5,5,0,0,0-4.47-4.87V15.43a1.93,1.93,0,0,0-1.93-1.93h-13a1.92,1.92,0,0,0-1.93,1.93V45.05H17.67v2.63H38.59V45.05H36.5V29.25h.09a1.55,1.55,0,0,1,1.89,1.68l-.25,7s-.31,5,3.73,6.28,6.18-2.58,6.18-2.58a10.72,10.72,0,0,0,0-6.77C46.93,30.68,47.14,24.47,47.14,24.47Zm-13,2.31H22V16h12.2Z"
        transform="translate(-17.67 -13.5)"/>
</svg>
