<svg data-name="Ebene 1" id="b5849a8a-edd8-401c-821f-6561e53374e3" viewBox="0 0 58.14 49.67"
     xmlns="http://www.w3.org/2000/svg">
  <defs>
    <style>.e1c11dc9-7d8d-4ebc-b8a0-e56ad4521a48 {
      fill: #ec6252;
    }</style>
  </defs>
  <path class="e1c11dc9-7d8d-4ebc-b8a0-e56ad4521a48"
        d="M13.9,50.71H47.45s18.68-16.31,0-35.37c0,0-3.06-4-3-7.76h7.79S52.1,12.4,53.6,14.8,66.37,32,54.13,50.21c0,0-2.05,3.85-2.24,6.62h-7V55H41.94V57H36.17V54.76H32.6V57H28.89V54.62H25.18v2.49H19.46V55H16.74v1.78H9.46A14.24,14.24,0,0,0,7.82,51c-1.51-2.65-13.16-15.45,0-36.37,0,0,1.49-1.49,1.4-7.19h7.66s.75,2.53-2.9,8S-3,30.37,13.9,50.71Z"
        transform="translate(-1.63 -7.44)"/>
  <rect class="e1c11dc9-7d8d-4ebc-b8a0-e56ad4521a48" height="30.98" rx="1.72" width="4.77" x="26.39" y="0.52"/>
  <circle class="e1c11dc9-7d8d-4ebc-b8a0-e56ad4521a48" cx="28.8" cy="37.64" r="3"/>
</svg>
