<svg xmlns="http://www.w3.org/2000/svg" width="38.08" height="41.329" viewBox="0 0 38.08 41.329">
  <g id="Gruppe_151" data-name="Gruppe 151" transform="translate(-32.318 -25.241)">
    <path
      d="M38.213,49.444l6.09,10.4,3.068-1.423s12.671,3.647,17.251-.845a5.974,5.974,0,0,0,.445-3.024s1.423,0,2.313-2.134-.845-2.756-.845-2.756A4.036,4.036,0,0,0,68,46.732a3.008,3.008,0,0,0-1.466-2.668s1.422-2.623.534-3.645-5.558-.845-5.558-.845l-5.024-.355a2.914,2.914,0,0,1-.578-2.445c.311-1.468,1.779-4.4.845-6.8a11.2,11.2,0,0,0-2.713-3.958s-1.733-1.066-1.69,1.023.668,3.424-.577,6.135-8.981,12.85-8.981,12.85Z"
      data-name="Pfad 1349"
      fill="none"
      id="Pfad_1349" stroke="#fff" stroke-miterlimit="10" stroke-width="1" transform="translate(1.895)"/>
    <path
      d="M45.1,56.863l-7.8-13.505a1.352,1.352,0,0,0-1.846-.495L33.5,44A1.35,1.35,0,0,0,33,45.842l7.8,13.505a1.352,1.352,0,0,0,1.846.495l1.961-1.133A1.352,1.352,0,0,0,45.1,56.863ZM36.42,46.879a.989.989,0,1,1,.41-1.338A.989.989,0,0,1,36.42,46.879Z"
      data-name="Pfad 1350"
      fill="none"
      id="Pfad_1350" stroke="#fff" stroke-miterlimit="10" stroke-width="1" transform="translate(0 5.957)"/>
  </g>
</svg>
