<svg data-name="Ebene 1" id="a8844b2a-25d5-4270-8e93-3c9b4c631de4" viewBox="0 0 53 53"
     xmlns="http://www.w3.org/2000/svg">
  <defs>
    <style>.adabda19-3f30-4c54-97b9-80b255cf4171, .af8dafcb-d432-4532-af3e-b365d95f6038 {
      fill: #fff;
    }

    .af8dafcb-d432-4532-af3e-b365d95f6038 {
      opacity: 0.3;
    }

    .a3033cc0-3ddf-42bf-aee2-d34f1ee35ef6 {
      isolation: isolate;
    }</style>
  </defs>
  <path class="adabda19-3f30-4c54-97b9-80b255cf4171"
        d="M32.09,5.53H32V8.8A23.19,23.19,0,1,1,8.79,32c0-.07,0-.13,0-.19H5.6c0,.08,0,.15,0,.23a26.5,26.5,0,1,0,26.5-26.5Z"
        data-name="Pfad 1415"
        id="b5f6f93e-454d-4b42-990f-4bdbb050a413"
        transform="translate(-5.58 -5.53)"/>
  <path class="af8dafcb-d432-4532-af3e-b365d95f6038"
        d="M5.59,32.39H8.85A23.63,23.63,0,0,1,32.48,8.86h.07V5.53A27,27,0,0,0,5.59,32.39Z" data-name="Pfad 1416"
        id="aed26416-69d7-412b-a7a1-74ddf63c67b3"
        transform="translate(-5.58 -5.53)"/>
  <g class="a3033cc0-3ddf-42bf-aee2-d34f1ee35ef6" data-name=" 7 min" id="ad659abc-5af5-4214-adfe-341e18a93e26">
    <g class="a3033cc0-3ddf-42bf-aee2-d34f1ee35ef6">
      <path class="adabda19-3f30-4c54-97b9-80b255cf4171" d="M21.77,35.06l2.76-6.77H21.07v-.43H25v.43l-2.76,6.77Z"
            transform="translate(-5.58 -5.53)"/>
      <path class="adabda19-3f30-4c54-97b9-80b255cf4171"
            d="M28.18,35.06v-5.4h.39v1.1h0v4.3Zm3.21,0V31.41A1.53,1.53,0,0,0,31,30.3a1.33,1.33,0,0,0-1-.41,1.3,1.3,0,0,0-1,.43,1.65,1.65,0,0,0-.39,1.15l-.37-.16a1.89,1.89,0,0,1,.23-.93,1.81,1.81,0,0,1,.65-.64,2,2,0,0,1,.95-.23,1.89,1.89,0,0,1,.85.19,1.5,1.5,0,0,1,.65.6,1.93,1.93,0,0,1,.25,1v3.72Zm3.2,0V31.34a1.38,1.38,0,0,0-.4-1.06,1.31,1.31,0,0,0-1-.39,1.73,1.73,0,0,0-.65.14,1.28,1.28,0,0,0-.55.49,1.74,1.74,0,0,0-.22.95h-.37a2,2,0,0,1,.21-1,1.64,1.64,0,0,1,.65-.68,1.9,1.9,0,0,1,1-.24,1.74,1.74,0,0,1,1.26.48,1.76,1.76,0,0,1,.5,1.32v3.75Z"
            transform="translate(-5.58 -5.53)"/>
      <path class="adabda19-3f30-4c54-97b9-80b255cf4171" d="M36.42,28.5v-.64h.42v.64Zm0,6.56v-5.4h.42v5.4Z"
            transform="translate(-5.58 -5.53)"/>
      <path class="adabda19-3f30-4c54-97b9-80b255cf4171"
            d="M38.34,35.06v-5.4h.39v1.1h0v4.3Zm4,0V32.2a3.65,3.65,0,0,0-.12-1,1.71,1.71,0,0,0-.35-.7,1.4,1.4,0,0,0-.55-.42,2,2,0,0,0-.75-.13,1.93,1.93,0,0,0-.84.17,1.55,1.55,0,0,0-.57.47,2.17,2.17,0,0,0-.31.69,3.2,3.2,0,0,0-.1.83h-.39a3.15,3.15,0,0,1,.3-1.49,2,2,0,0,1,.81-.83,2.29,2.29,0,0,1,1.1-.26,2.56,2.56,0,0,1,.75.11,1.92,1.92,0,0,1,.61.34,1.79,1.79,0,0,1,.45.53,2.3,2.3,0,0,1,.28.72,3.43,3.43,0,0,1,.1.88v2.94Z"
            transform="translate(-5.58 -5.53)"/>
    </g>
  </g>
</svg>
