<svg height="41" viewBox="0 0 50.945 41" width="50.945" xmlns="http://www.w3.org/2000/svg">
  <defs>
    <filter id="Chat" x="0" y="0" width="50.945" height="41" filterUnits="userSpaceOnUse">
      <feOffset dy="3" input="SourceAlpha"/>
      <feGaussianBlur stdDeviation="3" result="blur"/>
      <feFlood flood-opacity="0.161"/>
      <feComposite operator="in" in2="blur"/>
      <feComposite in="SourceGraphic"/>
    </filter>
  </defs>
  <g id="Chat-2" data-name="Chat" transform="translate(9 6)">
    <g transform="matrix(1, 0, 0, 1, -9, -6)" filter="url(#Chat)">
      <g id="Chat-3" data-name="Chat" transform="translate(9 6)" fill="rgba(204,204,204,0.22)">
        <path
          d="M 30.9419994354248 22.50040054321289 L 22.78800010681152 22.50040054321289 C 22.6986198425293 22.50040054321289 22.60964012145996 22.49296951293945 22.52354049682617 22.47833061218262 L 22.45743942260742 22.46709060668945 L 22.39072036743164 22.4736499786377 C 22.21042060852051 22.49139976501465 22.0267505645752 22.50040054321289 21.84479904174805 22.50040054321289 L 6.00029993057251 22.50040054321289 C 2.967420101165771 22.50040054321289 0.4999999701976776 20.03297996520996 0.4999999701976776 17.00010108947754 L 0.4999999701976776 6.000300407409668 C 0.4999999701976776 2.967420339584351 2.967420101165771 0.5000002980232239 6.00029993057251 0.5000002980232239 L 21.84479904174805 0.5000002980232239 C 24.8771800994873 0.5000002980232239 27.34420013427734 2.967420339584351 27.34420013427734 6.000300407409668 L 27.34420013427734 13.39659023284912 L 27.34420013427734 13.68957996368408 L 27.59980964660645 13.83279037475586 C 27.79677963256836 13.94315052032471 27.96376991271973 14.09559059143066 28.09612083435059 14.28589057922363 L 32.1732292175293 20.14324951171875 C 32.49840927124023 20.61009979248047 32.53525161743164 21.18989944458008 32.27186965942383 21.6943302154541 C 32.00833129882813 22.19906044006348 31.51118087768555 22.50040054321289 30.9419994354248 22.50040054321289 Z"
          stroke="none"/>
        <path
          d="M 30.9419994354248 22.00040054321289 C 31.32146072387695 22.00040054321289 31.65291976928711 21.79947090148926 31.82864952087402 21.46290016174316 C 32.00421905517578 21.12664985656738 31.97969055175781 20.74020004272461 31.76284980773926 20.42889022827148 L 27.68564033508301 14.57139015197754 C 27.59687995910645 14.44377040863037 27.48578071594238 14.34203052520752 27.35541915893555 14.26900005340576 L 26.84420013427734 13.98258018493652 L 26.84420013427734 13.39659023284912 L 26.84420013427734 6.000300407409668 C 26.84420013427734 3.243130207061768 24.60148048400879 1.000000238418579 21.84479904174805 1.000000238418579 L 6.00029993057251 1.000000238418579 C 3.243129968643188 1.000000238418579 1 3.243130207061768 1 6.000300407409668 L 1 17.00010108947754 C 1 19.75727081298828 3.243129968643188 22.00040054321289 6.00029993057251 22.00040054321289 L 21.84479904174805 22.00040054321289 C 22.01045989990234 22.00040054321289 22.17765998840332 21.99221038818359 22.34173965454102 21.97606086730957 L 22.47518920898438 21.96292114257813 L 22.60737991333008 21.98541069030762 C 22.66587066650391 21.99535942077637 22.72664070129395 22.00040054321289 22.78800010681152 22.00040054321289 L 30.9419994354248 22.00040054321289 M 30.9419994354248 23.00040054321289 L 22.78800010681152 23.00040054321289 C 22.66802978515625 23.00040054321289 22.55182075500488 22.99032020568848 22.43969917297363 22.97125053405762 C 22.24393081665039 22.99052047729492 22.04563903808594 23.00040054321289 21.84479904174805 23.00040054321289 L 6.00029993057251 23.00040054321289 C 2.686500072479248 23.00040054321289 -1.525879156361043e-08 20.31389999389648 -1.525879156361043e-08 17.00010108947754 L -1.525879156361043e-08 6.000300407409668 C -1.525879156361043e-08 2.686500310897827 2.686500072479248 2.716064386731887e-07 6.00029993057251 2.716064386731887e-07 L 21.84479904174805 2.716064386731887e-07 C 25.15859985351563 2.716064386731887e-07 27.84420013427734 2.686500310897827 27.84420013427734 6.000300407409668 L 27.84420013427734 13.39659023284912 C 28.09741973876953 13.53846073150635 28.32527923583984 13.73970031738281 28.50659942626953 14.00040054321289 L 32.58359909057617 19.85760116577148 C 33.50699996948242 21.18330001831055 32.55749893188477 23.00040054321289 30.9419994354248 23.00040054321289 Z"
          fill="#fff" stroke="none"/>
      </g>
    </g>
    <path d="M6-5H23.881v3H6ZM6,1H17.175V4H6Z" data-name="Vereinigungsmenge 5" fill="#fff"
          id="Vereinigungsmenge_5" transform="translate(-1.073 11.842)"/>
  </g>
</svg>
