<svg height="124.274" viewBox="0 0 228.763 124.274" width="228.763" xmlns="http://www.w3.org/2000/svg">
  <defs>
    <filter id="_1pt" x="0" y="0" width="228.763" height="124.274" filterUnits="userSpaceOnUse">
      <feOffset dy="3" input="SourceAlpha"/>
      <feGaussianBlur stdDeviation="3" result="blur"/>
      <feFlood flood-opacity="0.161"/>
      <feComposite operator="in" in2="blur"/>
      <feComposite in="SourceGraphic"/>
    </filter>
  </defs>
  <g id="Gruppe_153" data-name="Gruppe 153" transform="translate(-349.835 -555.926)">
    <g transform="matrix(1, 0, 0, 1, 349.83, 555.93)" filter="url(#_1pt)">
      <path
        d="M409.368,587.812s.261-1.679-.224-2.164-.6-.672-1.119-.709a13.956,13.956,0,0,0-3.06,0c-.448.186-3.059,1.865-3.619,2.873s-1.045,1.455-.933,2.276-.112,1.6,1.082,2.388,1.231,1.008,1.231,1.008-3.582,2.985-4.552,3.209-1.381.075-2.276.336-15.969,5.522-20.558,8.469-4.552,3.358-4.515,3.731a63.9,63.9,0,0,0-5.112,6.156,11.611,11.611,0,0,0-.746,1.753,21.358,21.358,0,0,0-1.642,1.53c-.41.485-1.754.858-1.866,5.112s-.784,24.4-.97,25.222-1.157,3.246-1.157,3.246v2.089s1.754,1.754,13.842,2.425c.075,0,2.686,3.47,6.9,3.843s13.283.97,13.283.97a9.843,9.843,0,0,0,6.044-3.582l15.484,1.119a3.91,3.91,0,0,1,1.119.224c.41.187.149.336.784.411s24.811,1.53,37.124.559c7.089-.559,7.649-.709,7.649-.709s2.947,6.641,6.977,7.313c4.029.373,15.26.783,15.26.783s7.126.373,10.223-12.835c.037.037,45.183-10.148,45.183-10.148a6.388,6.388,0,0,0,4.85,4.4l12.275.3s4.813-.373,6.641-12.051c0,.037,1.119.075,1.418.336s.187.522,0,.56,1.94.709,3.582-1.977a10.97,10.97,0,0,0,0-3.134s-.112-.224-.224-.224h-.112l.672-5.485s-.075-.373-.373-.373c0-.9,1.231-8.059,1.157-11.044a73.922,73.922,0,0,0-2.686-15c.037-.037.485-.485.523-.746a17.4,17.4,0,0,0-.485-4.328,9.384,9.384,0,0,0-3.022-3.134,3.77,3.77,0,0,0-.821-.112,15.864,15.864,0,0,0-1.53-2.089c-.784-.858-6.082-4.773-7.052-5.763s-6.417-6.512-8.395-8.191-9.253-8.022-15.073-10.074-11.38-2.873-15.67-2.462a225.955,225.955,0,0,0-56.065.112c0,.05-10.248.2-13.78,1.094S434.74,566.62,409.368,587.812Z"
        data-name="1pt"
        fill="#2c2b3b"
        id="_1pt-2" stroke="#fff" stroke-linecap="round" stroke-linejoin="round"
        stroke-width="1" transform="translate(-349.83 -555.93)"/>
    </g>
    <g id="_45_vorne" data-name="45 vorne" transform="translate(423.188 618.375)">
      <path
        d="M822.111,860.631l-3.251-.045c-.7-1.643-1.63-2.642-2.644-2.642a1.563,1.563,0,0,0-.378.048l-1.376.176c-2,0-3.646,3.879-3.916,8.92l-23.369-1.039a3.652,3.652,0,0,0-5.293-2.281c-.023,0-.046,0-.069,0a3.532,3.532,0,0,0-2.611,1.153l-.212-.009-3.789.608-17.931-.8c-.263-5.029-2.253-8.939-4.671-8.939a2.253,2.253,0,0,0-.376.035L751,855.93a3.618,3.618,0,0,0-2.842,1.846l-1.859-.055c-2.123,0-3.843,3.608-3.843,8.059a14.551,14.551,0,0,0,.779,4.864l-3.64.584-.1,1.542h-.348a1.224,1.224,0,0,0-.8.318l-.117.047a1.887,1.887,0,0,0-2.108.571l-.5-.14-1.293.348-.7-.149s-5.422.9-6.169.945-3.781-1.294-5.323-1.642c-1.177-.266-7.68-.618-10.7-.77-1.416-5.338-4.567-9.055-8.231-9.055-4.987,0-9.029,6.882-9.029,15.372s4.042,15.372,9.029,15.372c3.958,0,7.319-4.338,8.538-10.372l5.715.3s.746-.2,2.736-.8,5.174-3.532,6.567-4.179,9.4-1.492,9.4-1.492l.547-.348.036-.395a1.878,1.878,0,0,0,1.8-.073,1.168,1.168,0,0,0,.6.169,1.13,1.13,0,0,0,.4-.075v.523l2.537.1,9.007-1.629.921.129a2.271,2.271,0,0,0,.594.083,2.748,2.748,0,0,0,1.861-.822l25.72-4.652a3.529,3.529,0,0,0,2.966.139,3.613,3.613,0,0,0,3.8-2.053l23.583,1.024c.2,5.248,1.883,9.35,3.936,9.35l1.754.075c.921,0,1.768-.824,2.443-2.2l3.451.189c1.628,0,2.948-3.658,2.948-8.171S823.739,860.631,822.111,860.631Zm-64.854,6.62,5.614.244-5.721.917C757.2,868.034,757.231,867.646,757.256,867.251Z"
        data-name="Pfad 1307"
        fill="rgba(224,96,57,0.5)"
        id="Pfad_1307" stroke="#e06039" stroke-linecap="round" stroke-linejoin="round"
        stroke-width="1" transform="translate(-694.173 -855.781)"/>
    </g>
    <path
      d="M554.755,766.043a14.127,14.127,0,0,1,.746,4.154c.1,2.487.1,4.129-.2,4.353a.881.881,0,0,1-1.318,0c-.6-.547-1.517-1.542-1.517-1.542m4.627,2.139a1.461,1.461,0,0,0,.671,1.169c.274.05.97.149,1.144,0M551.562,785s1.179-1.791,1.726-2.86a4.778,4.778,0,0,0,.473-2.438,4.157,4.157,0,0,0-.547-1.865,10.614,10.614,0,0,0-1.651-2.164m3.243,16.394a5.962,5.962,0,0,0,.756-2.341c.035-.3,0-3.806,0-3.806s.164-1.816-.259-1.915c0,0-.388-.025-1.289,1.294s-1.348,1.866-1.348,1.866m-73.228-1.219.784.67a4.938,4.938,0,0,0,2.694,1.046c.53-.037.477-.485.7-2.425a40.161,40.161,0,0,0-.6-7.366,2.827,2.827,0,0,0-.849-1.849m3.91,12.089s.149.392.28.69a1.208,1.208,0,0,0,.746.671,6.162,6.162,0,0,0,2.154-.186c.382-.187.178-.784.178-.784M483.3,808.813a11.689,11.689,0,0,0,.964-3.675,26.52,26.52,0,0,0-.317-4.57c-.155-.69-.159-1.456-.73-1.53-.719-.093-2.883,2.649-2.883,2.649m-3.7-.089s.993-.974,2.317-2.429a8.854,8.854,0,0,0,2.033-5.224c.075-1.586-2.313-3.862-2.8-4.449a15.474,15.474,0,0,0-1.644-1.521m88.3-4.271s4.087-1.915,2.905-2.649M497.62,800.169l51.1-11.43m9.738-42.8c-1.866-.075-9.27,1.943-12.089,2.761-3.258.945-13.215,4.343-15.127,4.733M361.462,771.913c-.187,2.985,3.731,4.328,8.32,4.813,3.553.375,4.552.13,6.376.458m20.674-31.712s-15.894,8.805-16.292,18.033m94.1-15.919s-34.276,6.169-45.37,16.118m42.285-14.924s-27.61,6.815-35.37,12.437M423.4,769.823s-4.825,6.716-5.174,9.5c.05.05,24.68.162,33.331-2.791,11.641-3.974,21.043-12.382,29-15.267M359.335,800.381s.3.664,2.12,1.112a55.023,55.023,0,0,0,10.4,1.187m52.235,3.447c3.362.53,18.352.739,23.949.59s5.522-.466,5.522-.466"
      data-name="0,25pt"
      fill="none"
      id="_0_25pt" stroke="#fff" stroke-linecap="round" stroke-linejoin="round" stroke-width="0.25"
      transform="translate(0 -148.133)"/>
    <path
      d="M544.923,651.868s6.455-1.53,6.828-1.6a5.2,5.2,0,0,0,1.6-.97,5.5,5.5,0,0,0,1.082-1.53s-.634-2.574-.671-3.283a15.469,15.469,0,0,1,.336-2.5s4.589-21.827,11.044-20.745c7.028,1.178,4.886,12.849,5.521,24.277m-1.977-1a49.005,49.005,0,0,0,.336-12.387s-.373-6.567-3.88-10.895m-63.988,40.474a9.161,9.161,0,0,0,2.177-2.516,17.651,17.651,0,0,1-.846-7.313c.846-12.686-1.791-24.376-8.656-24.327,0,0-6.915-.249-10.646,9.452s-5.671,15.173-5.92,19.451c.448-.05.249.05.249.05a41.744,41.744,0,0,0-.249,4.726,15.825,15.825,0,0,1,.5,4.079c-.5.249.768.527-10.484,1.443m32.46-4.738a69.468,69.468,0,0,0,1.455-11.977c.249-6.815-1.94-15.223-5.97-18.8a8.006,8.006,0,0,0-6.493-1.878M405.12,665.15s-16.653-1.082-18.295-1.032a80.57,80.57,0,0,1-8.161-.212m36.417-68.937s-4.622,3.681-3.619,2.873-3.022,2.8-3.022,2.8m148.947,30.065c-.461,1.179-.787,9.037-.787,9.037,0,9.968,2.425,14.178,5.858,14.215s5.783-8.842,5.708-17.051-2.015-13.656-4.4-14.178a3.142,3.142,0,0,0-2.416.448m.465,10.7c-.865-.041-1.659,1.865-1.772,4.257s.5,4.365,1.361,4.406,1.659-1.865,1.772-4.257S562.678,633.916,561.813,633.874ZM558.8,651.636s.744,0,1.142,0,.273.149.572.236.92-.46,1.343-.883a3.021,3.021,0,0,0,.7-1.02c0-.075.2-3.234.174-5.6a17.487,17.487,0,0,1,.4-4.054,2.3,2.3,0,0,1,.871-1.393c.075-.1.149,0,.348,0a1.589,1.589,0,0,0,.7-.149c.149-.1.025-.647.1-1.841a4.935,4.935,0,0,0-.273-2.385,11.683,11.683,0,0,0-1.592,0c-.348.025-.348-.149-.473-.373s-.5-8.656-.672-9.079a1.454,1.454,0,0,0-.647-.647,5.516,5.516,0,0,0-.822-.381m-2.175,27.024s.137-3.808.112-4.331-.224-.572-.224-.572l-1.08,1.409m-.024-16.46a2.63,2.63,0,0,0,.905.9v-3.3m2.233,12.665c.467.011.951-1.354,1-3.425,0,0,.046-3-.7-3.041m-68.9-2.309c-4.946-.277-9.438,8.115-10.034,18.745s2.93,19.472,7.875,19.749,9.438-8.115,10.034-18.745S496.758,632.9,491.813,632.62Zm-1.673,13.92c-1.374-.077-2.625,2.286-2.792,5.279s.81,5.481,2.185,5.558,2.625-2.286,2.793-5.279S491.515,646.618,490.14,646.541Zm-2.258,9.2c.965,0,2.094-2.1,2.094-4.261,0-1.965-.919-3.395-1.716-3.395m-4.776,16.638a7.076,7.076,0,0,1,.808-1.7,23.518,23.518,0,0,1,1.754-2.313s.485,2.948.56,4.7a7.14,7.14,0,0,1-.336,2.761s1.828.149,2.2.149,0,0-.037.224.485.037,1.082,0,1.157-.821,1.791-1.53.615-.858.615-.858-.018-5.41,0-7.611-.117-2.45.318-4a3.552,3.552,0,0,1,1.617-2.152,2.5,2.5,0,0,1,.572-.187c.186-.013.224.224.485.323s.808-.286.883-.568,0-1.285.012-2.181.05-2.015,0-2.388a.623.623,0,0,0-.56-.5c-.149-.025-.286.062-.647.174a25.132,25.132,0,0,1-2.811.062c-.075-1.494-.6-7.014-.672-8.507a27.093,27.093,0,0,0,0-3.1c-.187-.56-2.015-1.269-2.389-1.392a1.224,1.224,0,0,0-.722,0m-6.245,21.609a11.291,11.291,0,0,0,1.11-2.868c.075-.933-1.046-2.276-1.046-2.276m1.316-7.582a14.44,14.44,0,0,0,2.006,1.948s.522-.224.6-1.306,0-6.769,0-6.769m9.533,15.069s-.249-.128-.852.245m76.094-16.466s4.05-.771,3.129-1.517M568.4,623.176a4.539,4.539,0,0,1,.075-1.094.461.461,0,0,1,.323-.2,7.133,7.133,0,0,0,3.955-3.159c1.036-2.094-.634-10.546-.634-10.546a9.626,9.626,0,0,0-.46-1.119c-.224-.423-2.786-4.888-2.873-5.348s0-1.06-.109-1.4a.8.8,0,0,0-.364-.457M556,595.454c.963-1.132,1.679-2.985.9-4.515s-4.626-7.574-13.021-12.051-8.171-4.589-20.222-5.373c-5.447-.41-10.82,2.313-12.536,5.522s-6.6,8.544-7.611,27.46c.037,0,26.516-3.126,30-3.619C538.244,602.207,553.878,597.954,556,595.454Zm-32.348-21.939,9.141,28.02s.373-.037.485.224a3.852,3.852,0,0,1,0,1.151s.97.043,1.194.379,2.425,8.955,2.425,8.955a40.032,40.032,0,0,1,1.119,10.932c-.149,6.529-2.052,24.811-2.052,24.811s11.566-2.463,12.8-3.134,1.455-.671,2.761-3.619,9.029-18.879,9.029-30.483a28.83,28.83,0,0,0-.3-5.186s-4.835-6.752-5.335-7.873c-.187-.448-1.143-.795-1.143-.795s.061-1-.2-1.22a.667.667,0,0,0-.56-.149L542.61,578.211m11.491,63.77-3.073.345m-15.06,5.662-33.494,7.168m4.411-.944s-1.015.069-1.064-.733,1.532-20.4,1.064-28.213a82.573,82.573,0,0,0-3.378-18.767m51.526,7.667s2.836-.5,3.582-.765.765-.392.746-1.418a.874.874,0,0,0-1.045-.877s-2.835.373-3.209.41-1.81-.093-1.6,1.53,1.53,1.119,1.53,1.119.727,2.257,1.753,2.22,1.065-2.781,1.065-2.781c.634-.28.577-.857.521-1.659a.792.792,0,0,0-.886-.731s-.177-1.881-1.5-1.881c-1.7,0-1.343,2.183-1.343,2.183m-23.451,4.861s3.243-.5,4.1-.755.875-.387.853-1.4-1.195-.865-1.195-.865-3.243.368-3.67.405-1.95-.105-1.835,1.509a1.183,1.183,0,0,0,1.75,1.1s.572,2.591,1.745,2.554,1.492-3.069,1.492-3.069c.725-.276.6-1.269.56-1.539-.149-.9-.8-.933-.8-.933s-1-2.061-2.518-2.061c-1.942,0-.925,2.434-.925,2.434m-5.869-11.183a73.377,73.377,0,0,0,7.922-1.045c3.719-.746,16.011-2.965,20.222-6.007,1.555-.958,2.251-1.306,2.749-2.4s.5-1.791,0-2.388a33.209,33.209,0,0,0-9.452-8.805l4.427,7.574,3.149,5.484m-1.7,1.068s-9.653-16.2-9.914-16.613-3.507-2.351-8.171-3.433-8.246-1.082-8.32-.933,8.908,26.08,8.908,26.08m12.045-14.25s.538,2.386,1.993,6.938l1.049,3.351m-19.18,4.722s-7.24-26.206-8.1-26.318c-16-1.794-17.872,28.99-17.872,28.99l9.1-.373a1.535,1.535,0,0,0-.373-1.157c-.448-.41-.9-.187-2.5-.187s-2.164-.112-2.612-.522-.336-1.642-.485-1.978-.485-.522-.6-.821a3.124,3.124,0,0,1,0-1.045l-1.37-2.281m-1.167,8.363s1.492-1.082,1.53-1.6a18.058,18.058,0,0,0-.917-2.91c-.1-.373.357-.485.506-1.194,0,0,.077-1.933.412-2.049m7.573,7.384c12.723-.858,14.887-2.649,14.962-5.783s-4.44-5-5.97-5.186-9.4-.3-11.529.6c0,0-.6,0-4.029,4.664m-42.634-27.125c-16.516,1.5-20.1,4.179-24.874,6.716s-19.8,14.327-22.685,16.616-10.348,8.706-11.542,9.1.3.448.249.348c25.57-1,36.863.5,58.105.794s28.107,2.589,32.037-.993,8.955-22.784,11.15-25.918c2.858-4.079,4.868-6.641,13.624-6.778m-13.624,6.778c-6.958-1.741-22.891-2.135-37.914-2.039-15.621.1-22.386.7-29.4,2.089m50.32,27.816s.4.54-2.713,1.958-10.38,3.964-15.021,6.865c-2.985,1.866-4.962,3.413-4.962,3.413m-96.6,6.139a14.461,14.461,0,0,0-.336,1.791c-.187,1.6-.746,5.261.336,5.9s1.866.149,4.888.224,5.932,1.679,6.529,1.306.97.261,1.567-10.111m-15.61,3.47,2.29-.783m14.439,10.6,29.536,11.979L414.2,641.5a.716.716,0,0,0-.686-.7l-22.425-.952a.589.589,0,0,0-.614.6l.191,7.273a.65.65,0,0,0,.619.632l22.272,1.054A.732.732,0,0,0,414.322,648.662Zm50.457-18.82a12.314,12.314,0,0,0,2.612,1.07s2.587,5.6,4.253,6.243,3.011.812,10.049.274c1.415-.221,1.492-.423,1.492-.423m20.477-32.932c.035-.474-4.073-3.246-4.67-3.357a1.3,1.3,0,0,0-1.086.22m-115.162,48.47c-8.457-.213-16.042-.792-16.329,3.12s2.151,4.577,9.315,5.174C376.478,657.7,377.971,655.987,382.746,649.407Zm-10.348,0c-.9.115-3.209,1.4-3.283,3.344-.091,2.361.9,4.131,7.661,4.3m47.733-5.025s8.731,8.731,10.1,9.079,2.239.846,11.74.448,15-.672,14.7-3.681C459.009,655.86,451.2,652.9,424.509,652.03Zm2.836.1s7.835,7.782,9.353,8.329.4,1.542,20.749.219m-27.639,4.47s2.04-2.077,1.443-3.221-8.159-8.244-9.352-8.7a12.342,12.342,0,0,0-3.632-.6s-30.5-1.592-31.938-1.642-1.99-.05-2.736.8-4.481,5.671-4.927,6.467-1.291,3.031-1.092,3.456,4.875.823,5.82.773,1.244-.149,2.338-.2,1.973-.05,4.742.05c0,0,27.993,1.777,29.086,1.89a5.742,5.742,0,0,1,2.537.647C422.594,665.163,429.54,665.444,429.807,665.15Zm-42.372-14.114s-5.634,5.794-6.231,6.354-.6,1.269-.224,2.2c.509,1.272,4.664.97,7.425,1.157s39.475,2.425,40.519,2.537,2.05.319,2.05.319m3.211-38.438a27.844,27.844,0,0,0-4.079,7.562c-.8,2.637.547,2.885,1.741,3.1s6.616-.658,7.562-.783a21.035,21.035,0,0,1,6.318.423c2.487.6,4.079.448,7.562-.423s11.492-5.2,11.492-5.2l3.781-2.985s9.7-7.611,2.487-8.606-33.729,6.169-36.863,6.915-7.413,1.94-7.413,1.94a9.189,9.189,0,0,0-2.263-1.642c-.871-.3-8.182-.842-18.66-1.045-7.731-.149-14.944-.4-15.889-.1a14.3,14.3,0,0,0-2.711,1.579c-.634.112-3.582-2.5-3.582-2.5s-6.156-5.074-6.828-5.9a1.116,1.116,0,0,1-.3-1.119M414.2,641.5c1.454.115,2.774-.463,4.714-2.005,3.43-2.727,8.158-9.6,7.86-12.387M387.248,625.9c-2.065,2.425-1.169,9.139.97,11.7,1.567,1.878,2.009,2.2,2.869,2.24m1.2-13.347c-3.433.037-3.283.112-4.254.609s-.858,2.9-.186,6.274a7.739,7.739,0,0,0,3.656,5.5c1.007.522,5.335.709,12.387.959s10.186.272,12.051,0,4.664-3.124,7.014-5.959,2.537-4.776,2.15-5.522c-.4-.763-13.494-1.383-19.8-1.642C401.053,626.546,395.718,626.459,392.285,626.5Zm-.971.014c-.971.014-1.267.285-2.051,1.292s.075,3.544.522,5.069,2.836,2.393,4.614,2.985,4.527.64,10.385.826c4.178.133,9.589.56,11.305.149s5.559-1.53,6.865-2.947m38.094,23.991s4.237-.418,10.766-.6,5.452-.813,5.452-.813"
      data-name="0,5pt"
      fill="none"
      id="_0_5pt" stroke="#fff" stroke-linecap="round" stroke-linejoin="round" stroke-width="0.5"
      transform="translate(-5.714 -7.157)"/>
  </g>
</svg>
