<svg xmlns="http://www.w3.org/2000/svg" width="40.214" height="39.478" viewBox="0 0 40.214 39.478">
  <path
    d="M8.144,16.887,13.031,19.6s2.945-.816,3.065-5.368L11.3,11.487l.361-.915s6.117.048,7.706,2.553a8.5,8.5,0,0,1,.867,3.155,6.264,6.264,0,0,0,.987,2.986L26.8,25.194,23.1,28.9l-4.168-4.054a8.167,8.167,0,0,0-2.5-1.831c-1.193-.425-3.383-.1-4.789-.915S8.193,18.653,8.013,17.28ZM25.577,36.536c-4,.243-4.205,4.616-4.205,4.616l-7.831,7.72c-5.084-1.4-4.711-4.879-4.711-4.879l7.649-7.6c4.661-.548,4.677-4.33,4.677-4.33l.936-.844,1.849,1.116L37.456,18.857l.505-1.9,4.578-3.244,1.349,1.389-3.252,4.617-1.815.41L25.272,33.683l1.24,1.937Zm21.5,6.193-4.888-2.714s-2.945.817-3.065,5.368l4.792,2.745-.362.915S37.436,49,35.846,46.491a8.5,8.5,0,0,1-.867-3.155,6.267,6.267,0,0,0-.987-2.986L28.42,34.423l3.7-3.709,4.168,4.054a8.174,8.174,0,0,0,2.5,1.831c1.193.425,3.384.1,4.789.915s3.449,3.449,3.629,4.822Z"
    data-name="Pfad 1338"
    fill="none"
    id="Pfad_1338" stroke="#fff" stroke-miterlimit="10" stroke-width="1" transform="translate(-7.502 -10.069)"/>
</svg>
