<svg xmlns="http://www.w3.org/2000/svg" width="58.99" height="25.238" viewBox="0 0 58.99 25.238">
  <g id="Gruppe_114" data-name="Gruppe 114" transform="translate(-3.802 -17.518)">
    <path
      d="M39.427,30.328l3.061.466-.008-.229a5.248,5.248,0,0,0-2.814-1.8c-.887-.153-1.961.44-2.663.449a4.519,4.519,0,0,1-1.651-.467l-2.945-1.3L28.581,25.6l-4.036-2a3.471,3.471,0,0,1-1.088-1.359,4.71,4.71,0,0,0-1.059-1.47c-1.308-.994-4.492.161-4.492.161l-.011.545,3.017.5c.816,2.386-.555,3.378-.555,3.378L17.3,24.892l.008.229a5.248,5.248,0,0,0,2.814,1.8c.887.153,1.961-.439,2.662-.449a4.513,4.513,0,0,1,1.652.468l2.945,1.3L31.2,30.082l4.036,2a3.469,3.469,0,0,1,1.088,1.36,4.707,4.707,0,0,0,1.059,1.47c1.308.993,4.492-.162,4.492-.162l.011-.545-3.017-.5C38.056,31.32,39.427,30.328,39.427,30.328Z"
      data-name="Pfad 1341"
      fill="none"
      id="Pfad_1341" stroke="#fff" stroke-linecap="round" stroke-linejoin="round" stroke-width="1"/>
    <g id="Gruppe_113" data-name="Gruppe 113">
      <circle cx="4" cy="4" data-name="Ellipse 154" fill="none" id="Ellipse_154" r="4"
              stroke="#fff" stroke-miterlimit="10" stroke-width="1" transform="translate(11.267 34.256)"/>
      <circle cx="4" cy="4" data-name="Ellipse 155" fill="none" id="Ellipse_155" r="4"
              stroke="#fff" stroke-miterlimit="10" stroke-width="1" transform="translate(48.309 34.218)"/>
      <path
        d="M61.955,29.494a4.206,4.206,0,0,0-1.866-2.461L46.19,25c-1.46-1.677-8.356-6.463-8.653-6.706a1.571,1.571,0,0,0-.785-.271s-25.852-.027-26.23,0a.619.619,0,0,0-.514.3L5.763,24.545,4.3,25.167v8.167a5.92,5.92,0,0,0,5.472,4.43,5.5,5.5,0,0,1,11,0v.025l26.006.061c0-.029-.005-.057-.005-.086a5.5,5.5,0,0,1,11,0c0,.038,0,.074,0,.112h.292s1.758-1.271,2.623-2a7.592,7.592,0,0,0,1.541-2.488A12.371,12.371,0,0,0,61.955,29.494Z"
        data-name="Pfad 1342"
        fill="none"
        id="Pfad_1342" stroke="#fff" stroke-miterlimit="10" stroke-width="1"/>
    </g>
  </g>
</svg>
