<svg height="60.584" viewBox="0 0 42.537 60.584" width="42.537" xmlns="http://www.w3.org/2000/svg">
  <g data-name="Gruppe 155" id="Gruppe_155" transform="translate(1.522 -3.855)">
    <path
      d="M25.768,2A20.753,20.753,0,0,0,5,22.768c0,15.576,20.768,38.57,20.768,38.57s20.768-22.993,20.768-38.57A20.753,20.753,0,0,0,25.768,2Z"
      fill="#2c2b3b" id="ic_place_24px" stroke="#e06039" stroke-width="2" transform="translate(-6.022 2.355)"/>
    <g data-name="Gruppe 113" id="Gruppe_113" transform="translate(4.302 18.016)">
      <circle cx="2.162" cy="2.162" data-name="Ellipse 154" fill="#fff" id="Ellipse_154" r="2.162" stroke="#2c2b3b"
              stroke-miterlimit="10" stroke-width="1" transform="translate(3.764 8.777)"/>
      <circle cx="2.162" cy="2.162" data-name="Ellipse 155" fill="#fff" id="Ellipse_155" r="2.162" stroke="#2c2b3b"
              stroke-miterlimit="10" stroke-width="1" transform="translate(23.783 8.756)"/>
      <path
        d="M35.46,24.219a2.273,2.273,0,0,0-1.008-1.33l-7.512-1.1a50.542,50.542,0,0,0-4.676-3.624.849.849,0,0,0-.424-.146s-13.971-.015-14.176,0a.335.335,0,0,0-.278.161L5.092,21.545l-.79.336v4.414a3.2,3.2,0,0,0,2.957,2.394,2.972,2.972,0,1,1,5.945,0V28.7l14.055.033c0-.016,0-.031,0-.046a2.972,2.972,0,1,1,5.945,0c0,.021,0,.04,0,.061h.158s.95-.687,1.418-1.081a4.1,4.1,0,0,0,.833-1.345A6.686,6.686,0,0,0,35.46,24.219Z"
        data-name="Pfad 1342" fill="#fff" id="Pfad_1342" stroke="#fff" stroke-miterlimit="10" stroke-width="1"
        transform="translate(-4.302 -18.016)"/>
      <path
        d="M29.256,25.752,30.911,26l0-.124a2.836,2.836,0,0,0-1.521-.974c-.479-.083-1.06.238-1.439.243a2.442,2.442,0,0,1-.892-.252l-1.592-.7L23.395,23.2l-2.181-1.081a1.876,1.876,0,0,1-.588-.734,2.545,2.545,0,0,0-.572-.794c-.707-.537-2.428.087-2.428.087l-.006.295,1.63.27c.441,1.289-.3,1.826-.3,1.826L17.3,22.814l0,.124a2.836,2.836,0,0,0,1.521.974c.479.083,1.06-.237,1.439-.243a2.439,2.439,0,0,1,.893.253l1.592.7,2.068.994L26.993,26.7a1.875,1.875,0,0,1,.588.735,2.544,2.544,0,0,0,.572.794c.707.537,2.428-.088,2.428-.088l.006-.295-1.631-.27C28.515,26.288,29.256,25.752,29.256,25.752Z"
        data-name="Pfad 1341" fill="#2c2b3b" id="Pfad_1341" stroke="#2c2b3b" stroke-linecap="round"
        stroke-linejoin="round" stroke-width="1" transform="translate(-11.273 -19.098)"/>
    </g>
  </g>
</svg>
