<svg xmlns="http://www.w3.org/2000/svg" width="27.084" height="28.624" viewBox="0 0 27.084 28.624">
  <g id="Gruppe_163" data-name="Gruppe 163" transform="translate(-227.591 -164.614)">
    <path
      d="M237.809,165.114a9.718,9.718,0,1,0,9.718,9.718A9.718,9.718,0,0,0,237.809,165.114ZM237.8,183.02a7.967,7.967,0,1,1,7.967-7.967A7.967,7.967,0,0,1,237.8,183.02Z"
      data-name="Pfad 1413"
      fill="#fff"
      id="Pfad_1413" stroke="#fff" stroke-miterlimit="10" stroke-width="1"/>
    <g id="Gruppe_119" data-name="Gruppe 119" transform="translate(244.919 183.02)">
      <path
        d="M250.513,189.093c-.253.239-.515.46-.777.676l7.323,7.763a1.189,1.189,0,0,0,1.7-1.607l-7.341-7.778C251.136,188.471,250.835,188.789,250.513,189.093Z"
        data-name="Pfad 1353"
        fill="#fff"
        id="Pfad_1353" stroke="#fff" stroke-miterlimit="10" stroke-width="1" transform="translate(-249.736 -188.146)"/>
    </g>
  </g>
</svg>
