<svg height="183.779" viewBox="0 0 283.716 183.779" width="283.716"
     xmlns="http://www.w3.org/2000/svg">
  <defs>
    <style>.a, .c, .d, .e {
      fill: none;
      stroke: #fbfbfb;
    }

    .a, .d, .e {
      stroke-linecap: round;
      stroke-linejoin: round;
    }

    .b {
      fill: rgba(224, 96, 57, 0.5);
      stroke: #e06039;
    }

    .c {
      stroke-miterlimit: 10;
    }

    .c, .d {
      stroke-width: 0.5px;
    }

    .e {
      stroke-width: 0.25px;
    }

    .f {
      filter: url(#a);
    }</style>
    <filter filterUnits="userSpaceOnUse" height="183.779" id="a" width="283.716" x="0" y="0">
      <feOffset dy="23" input="SourceAlpha"/>
      <feGaussianBlur result="b" stdDeviation="5"/>
      <feFlood flood-opacity="0.161"/>
      <feComposite in2="b" operator="in"/>
      <feComposite in="SourceGraphic"/>
    </filter>
  </defs>
  <g transform="translate(-898.092 -507.753)">
    <g transform="translate(913.785 508.264)">
      <g class="f" transform="matrix(1, 0, 0, 1, -15.69, -0.51)">
        <path class="a"
              d="M376.3,349.218s11.321-8.767,14.358-10.838,8.077-6.075,15.463-8.629,13.875-4.487,18.017-5.453,16.429-3.175,20.088-3.314a161.513,161.513,0,0,1,17.534.345c7.179.552,13.806,1.381,16.567,1.933s5.453.759,15.394,3.245a65.537,65.537,0,0,1,16.015,6.075h1.933s5.8,1.035,9.043,1.933a72.316,72.316,0,0,1,11.183,4.211c1.933,1.1,5.385,3.589,6.144,5.108,1.035,1.311,2.865,3.469,2.865,3.469a24.592,24.592,0,0,1,3,3.02,31,31,0,0,1,1.915,8.162,51.326,51.326,0,0,1,1.191,5.436,35.571,35.571,0,0,1-.414,3.935c-.276,1.311-.966,3.866-.966,3.866l.069,2.071a19.2,19.2,0,0,1-5.523,8.146c-4.349,3.934-6.7,6.143-6.7,6.143a30.228,30.228,0,0,1-2.968,12.012c-2.9,5.591-5.246,7.386-7.594,8.974a6.494,6.494,0,0,1-4.832.966l-9.526-2.14a7.733,7.733,0,0,1-3.659-3.382s-12.011,4.28-17.534,6.972-39.416,17.534-39.693,17.672-26.991,12.011-26.991,12.011-.76.621-1.311.346c-.138.759-1.691,8.819-6.455,14.824s-10.251,8.594-11.959,8.8a51.891,51.891,0,0,1-6.316.518c-3.055-.621-10.3-3.572-11.39-4.452-1.45-.776-4.4-3-4.452-3.417a142.77,142.77,0,0,1-20.191,2.02c-8.232,0-14.911.1-17.344-1.294s-6.886-6.42-8.9-6.938-9.681-3.831-13.668-5.436-11.6-6.679-12.84-7.507-4.659-3.624-5.695-3.728-3.314.518-3.883.1-1.553-.466-.932-4.4,2.071-4.867,2.071-4.867a6.82,6.82,0,0,1-.777-1.708,8.75,8.75,0,0,1,0-1.708,9.9,9.9,0,0,1-1.967-4.246c-.362-2.33-.207-9.112.673-12.063a11.337,11.337,0,0,1,1.967-4.142,39.137,39.137,0,0,1,.363-4.608,13.211,13.211,0,0,1,2.071-4.556,29.834,29.834,0,0,1,4.556-3.831s.673-.673,1.346-1.294,9.112-5.229,9.474-5.436,15.843-6.99,16.516-7.2,7.455-3.676,10.2-4.97,8.7-3.935,11.494-5.126,7.145-3.365,7.145-3.365a17.864,17.864,0,0,0,3.158-1.6c.725-.621,4.09-3.469,4.09-3.469a2.483,2.483,0,0,1-.828-2.019l.052-1.346a6.251,6.251,0,0,1,2.071-3.417c1.916-1.864,3.055-2.019,4.659-1.967s2.14.518,2.382,1.035Z"
              transform="translate(-278.79 -320.38)"/>
      </g>
      <path class="b"
            d="M625.271,546.7l-9.712-3.642c-.26-.11-.526-.21-.8-.3-8.405-2.761-18.677,5.526-22.942,18.51s-.909,25.748,7.5,28.509l9.712,3.643c.26.109.526.21.8.3,8.405,2.762,18.677-5.526,22.942-18.51S633.677,549.462,625.271,546.7Z"
            transform="translate(-509.526 -449.612)"/>
      <path class="b"
            d="M371.948,447.282s-2.071,19.95,0,22.435,10.768,8.7,16.567,7.455,26.577-8.284,34.308-19.4c2.554-4.418-3.935-19.4-5.661-20.709s-12.77-5.8-15.186-5.177-18.874,6.351-23.174,9.181S372.225,444.29,371.948,447.282Z"
            transform="translate(-330.277 -372.555)"/>
      <path class="c"
            d="M459.455,344.875l52.5,11.493s-2.174,2.589-3.106,4.039-7.662,12.115-8.284,13.047-8.387,13.15-9.319,13.979-3.314,4.038-5.7,4.97c-4.349-.828-20.5-4.142-31.582-7.559s-16.153-4.556-22.469-6.938-7.766-3.106-10.665-4.452a52.352,52.352,0,0,0,9.629-6.834c5.7-4.763,13.979-11.7,16.257-13.357S457.8,345.393,459.455,344.875Z"
            transform="translate(-353.966 -332.18)"/>
      <path class="c"
            d="M611.882,354.658s1.864,8.387,2.485,13.047S615.4,380.13,615.4,380.13c-3.417,1.553-17.292,6.938-17.292,6.938s-3.727-1.45-5.7-1.968a21.067,21.067,0,0,0-3.624-.621l-3.314.621-1.139,1.036-.725-5.177s8.7-15.325,13.668-18.638S601.424,358.282,611.882,354.658Z"
            transform="translate(-430.598 -336.785)"/>
      <path class="c"
            d="M610.025,422.617l1.121-6.506a29.969,29.969,0,0,1-.259-6.265c.259-3,1.088-7.3,1.139-10.458s-.466-6.316-.155-8.957c.155-.828.311-1.812.311-1.812a20.041,20.041,0,0,0-.156-2.848c-.207-2.019-1.863-5.54-2.019-6.006s-.363-1.6-.363-1.6a3.669,3.669,0,0,0-.414-1.295.843.843,0,0,0-.932-.518s-1.139-9.06-1.812-12.84-3.262-11.8-3.262-11.8a2.8,2.8,0,0,0-.052-.88,3.832,3.832,0,0,0-.311-.569s-13.064,3.469-17.827,8.715a130.321,130.321,0,0,0-16.705,24.092c-5.66,10.354-7.593,14.013-7.593,14.013a6.79,6.79,0,0,0-.553,2.83c.138,1.242-.138,1.035.276,2.347s1.173,3.521,1.173,3.521a17.174,17.174,0,0,0-.552,2.347,10.847,10.847,0,0,0,.069,2.554,40.618,40.618,0,0,0,.9,5.316,32.843,32.843,0,0,1,.483,6.144c-.069.483-.207,6.765-.414,9.112a24.33,24.33,0,0,0,.276,5.868,6.983,6.983,0,0,0,.345,1.518s-.069,1.588-.069,2.14.069,3.244.069,3.244Z"
            transform="translate(-419.56 -334.713)"/>
      <path class="d"
            d="M646.288,349.338s8.663-3.175,14.841-2.8a21.127,21.127,0,0,1,5.764,1s2.14,5.626,2.727,8.111,2.071,10.562,2.071,10.562-6.765,2.485-8.629,3.141-10.423,3.728-10.423,3.728-1.346-7.421-2.554-11.632S646.288,349.338,646.288,349.338Z"
            transform="translate(-460.103 -332.95)"/>
      <path class="d"
            d="M687.9,349.114s2.071,6.489,2.8,9.285,1.76,8.629,1.76,8.629l11.356-3.762a8.44,8.44,0,0,0-1.484-3.866,27.823,27.823,0,0,0-7.524-6.8A56.869,56.869,0,0,0,687.9,349.114Z"
            transform="translate(-479.69 -334.175)"/>
      <path class="d"
            d="M701.4,343.314s.466-.777,6.265.621,12.737,3.521,16.671,5.747a15.194,15.194,0,0,1,5.488,4.919l-4.763.311a3.9,3.9,0,0,1-2.33-.1,23.278,23.278,0,0,1-3.107-1.708,27.687,27.687,0,0,0-4.556-2.071C713.356,349.941,701.4,343.314,701.4,343.314Z"
            transform="translate(-486.046 -331.344)"/>
      <path class="d"
            d="M758.538,370.8a1.168,1.168,0,0,1-.569.621c-.466.259-.88.363-1.036.673a6.85,6.85,0,0,0,.1,3.21,13.558,13.558,0,0,0,2.9,3.624,19.254,19.254,0,0,1,2.848,2.123,9.981,9.981,0,0,1,.673.931s-.362-2.33-.724-4.038a13.449,13.449,0,0,0-1.139-3.883A25.065,25.065,0,0,0,758.538,370.8Z"
            transform="translate(-512.124 -344.384)"/>
      <path class="d"
            d="M313.308,502.691c-1.1-.621-6.144-4.763-7.11-6.213s-2.14-1.519-3.314-4.763a40.588,40.588,0,0,1-1.726-10.148c0-1.45.069-3.52.759-3.589a2.23,2.23,0,0,1,1.656.9,35.986,35.986,0,0,0,3.935,2.554c1.311.76,8.56,4.9,8.56,4.9s12.012,4.418,17.879,6.144,6.972,2.554,7.455,2.83a4.128,4.128,0,0,1,1.519,3.521,7.811,7.811,0,0,1-1.243,3.935c-.828,1.242-2.485,3.727-3.52,4.211s-1.656,1.933-7.248.966C319.589,506.419,313.308,502.691,313.308,502.691Z"
            transform="translate(-297.628 -394.838)"/>
      <path class="d"
            d="M300.635,514.41s-.069-.345.966.207,4.28,4.279,14.289,10.147c10.562,4.211,19.329,7.041,23.677,8.284.9.207,1.174.345.967.621s-1.036,1.726-1.243,1.933-2.278,3.175-2.485,3.313a8.025,8.025,0,0,1-4.556-.414c-2.554-.828-13.875-5.453-15.048-6.213s-10.976-6.765-11.528-7.317a9.635,9.635,0,0,1-1.795-2.554c-.138-.552-2.347-5.246-2.554-5.729S300.635,514.41,300.635,514.41Z"
            transform="translate(-297.381 -411.941)"/>
      <path class="d"
            d="M431.052,429.2l2.14.345a4.474,4.474,0,0,1-.553,3.8,13.866,13.866,0,0,1-4.28,5.109,109.389,109.389,0,0,1-12.218,6.282c-5.868,2.692-16.015,7.524-20.709,9.8a118.5,118.5,0,0,0-11.6,6.213c-2.14,1.45-3.52,2.416-3.52,2.416s-10.838,2-15.946,3.175-14.5,3.244-14.5,3.244.276-1.38.345-2.209a3.624,3.624,0,0,0-.621-2.347c-.414-.483-3.037-2.347-15.325-6.9S309.42,447.7,309.006,447.492s-1.933-1.242-2.623-.966-1.311,1.45-1.311,1.45a9.76,9.76,0,0,1,2-3.659c1.726-2.208,3.659-5.315,7.869-8.214s10.148-7.248,14.634-9.319a59.776,59.776,0,0,0,7.041-3.745"
            transform="translate(-299.47 -368.976)"/>
      <path class="d"
            d="M574.926,404.353l-9.767,17.154a9.529,9.529,0,0,0,2.278-.621,6.912,6.912,0,0,1,2.692-1.173c.966-.069,4.418.207,5.246.207s5.8.069,7.179,0a50.445,50.445,0,0,0,7.8-1.1c.9-.414,2.554-1.863,2.554-3.037a6.009,6.009,0,0,0-1.518-4.211,18.5,18.5,0,0,0-5.8-2.623c-.966-.138-4.832-1.795-7.179-1.1s-2.761,1.691-2.761,1.691Z"
            transform="translate(-421.91 -360.18)"/>
      <path class="d" d="M578.78,422.73s-1.139-2.382-.725-3.314a12.062,12.062,0,0,1,3.624-5.281"
            transform="translate(-427.939 -364.785)"/>
      <path class="d" d="M483.734,594.429" transform="translate(-383.578 -449.661)"/>
      <path class="d"
            d="M453.8,541.011l1.225-.535a.835.835,0,0,1,.414-.967,37.648,37.648,0,0,1,1.933-15.48c2.847-7.973,7.973-16.671,16.1-22.522a21.248,21.248,0,0,1,5.087-2.739c5.833-2.144,10.37-.555,11.222-.109,1.087.57,6.886,3.986,7.248,9.371s1.243,8.439-.1,13.461c-.414,1.812-1.225,3.175-2.554,3.245a23.386,23.386,0,0,0-.828-14.98c-3.245-7.455-8.491-8.352-9.181-8.9s-6.213-1.933-6.213-1.933"
            transform="translate(-369.486 -404.112)"/>
      <path class="c"
            d="M640.842,347.259s9.474-3.262,15.532-3.365a28.2,28.2,0,0,1,12.374,2.744,77.385,77.385,0,0,1,8.75,5.695,33.857,33.857,0,0,1,4.038,4.142c.311.518,1.916,3.779,1.916,3.779s.259.466.414.673a1.952,1.952,0,0,1,.207.724,5.344,5.344,0,0,0,.621.725c.414.414.311.983.673,1.5a15.928,15.928,0,0,1,1.346,2.64c.1.414.207,2.123.207,2.123a16.6,16.6,0,0,0-.57,1.863,65.934,65.934,0,0,1-2.9,9.319c-1.087,2.175-5.54,10.976-6.058,11.7s-3.676,8.7-3.831,9.164-2.64,7.2-2.64,7.662-.207.569-.207.569L648,419.621"
            transform="translate(-457.539 -331.716)"/>
      <path class="c"
            d="M692.07,448.363a14.194,14.194,0,0,0,2.14-.777,8.1,8.1,0,0,0,2.071-2.123,3.8,3.8,0,0,0,.207-1.087,1.7,1.7,0,0,1-.1-1.036,17.818,17.818,0,0,0,.1-1.967s3-11.7,6.938-17.447,8.439-9.941,11.649-9.889,4.194.052,5.54,2.382,1.243,5.54,1.191,8.646a17.228,17.228,0,0,0,.052,3.262,6.34,6.34,0,0,1-1.208,3.607,32.057,32.057,0,0,0-.069-6.316,16.974,16.974,0,0,0-2.969-7.041,8.6,8.6,0,0,0-6.9-2.934"
            transform="translate(-481.655 -364.739)"/>
      <path class="c"
            d="M392.635,504.042a18.7,18.7,0,0,1-3.072,5.7c-2.175,2.692-3.693,4.729-3.693,4.729a.383.383,0,0,0-.138.414c.069.276.9,1.381,4.142,1.9s10.631-.034,11.425-.138,8.491-1.035,11.183-2.278,4.452-1.415,9.077-5.246a30.266,30.266,0,0,0,4.9-5.7,12.307,12.307,0,0,0,1.484-2.589,1.782,1.782,0,0,0-.691-1.864c-.656-.38-1.1-.587-2.934-.518s-6.04.207-6.04.207"
            transform="translate(-337.436 -404.471)"/>
      <line class="c" transform="translate(73.234 28.331)" x1="8.577" y2="7.196"/>
      <path class="c"
            d="M584.551,331c-6.834-2.071-12.839-3.8-21.537-5.8a162.515,162.515,0,0,0-20.709-2.83s-7.386,1.1-17.188,3.037a73.9,73.9,0,0,0-16.567,5.246A138.934,138.934,0,0,1,532.5,333.7c11.6,2.692,18.362,4,25.886,7.525,5.937-3.245,10.7-6.282,20.157-8.836Z"
            transform="translate(-395.26 -321.588)"/>
      <path class="c" d="M748.255,426.432s1.605-.776,2.071-1.087,5.229-4.349,5.85-4.867,2.9-3.21,2.9-3.21l.173-.328"
            transform="translate(-508.105 -366.105)"/>
      <line class="c" transform="translate(213.176 76.635)" x2="1.657" y1="0.57"/>
      <path class="c" d="M551.119,527.418s-4.659,2.019-6.989,3.055-7.3,4.142-8.646,4.246"
            transform="translate(-407.94 -418.115)"/>
      <path class="c"
            d="M458.2,513.331a1.483,1.483,0,0,0,.828.345c.553.069,2.623.414,3.107.414a30.762,30.762,0,0,1,4.418.414,17.636,17.636,0,0,1,2.071.621"
            transform="translate(-371.558 -411.483)"/>
      <path class="d"
            d="M308.9,449.353a66.1,66.1,0,0,0-3.728,5.971,12.028,12.028,0,0,0-.9,5.453c0,.414-.017.276-.017.276l.431-.691"
            transform="translate(-299.086 -381.364)"/>
      <path class="d" d="M300.919,478.514a8.141,8.141,0,0,1,.069-3.762,20.459,20.459,0,0,1,1.623-3.486"
            transform="translate(-297.423 -391.68)"/>
      <path class="d" d="M300.729,475.556s-.794-.69-.345-10.355" transform="translate(-297.199 -388.825)"/>
      <path class="d"
            d="M704.769,394.169a14.641,14.641,0,0,0,5.126-1.5c.88-.414-.984-.311-.984-.311a3.515,3.515,0,0,1,2.692-.569c1.191.155.932,1.6.052,2.174a17.729,17.729,0,0,1-5.384,1.916,5.934,5.934,0,0,1-2.175-.052s-.311-.828-.051-1.139A2.325,2.325,0,0,1,704.769,394.169Z"
            transform="translate(-487.244 -354.241)"/>
      <path class="e"
            d="M712.413,394.179a1.9,1.9,0,0,1-.207,1.4,4.983,4.983,0,0,1-2.537,1.76,8.572,8.572,0,0,1-2.9.776c-1.243,0-2.071-.259-2.537-1.139"
            transform="translate(-487.381 -355.39)"/>
      <path class="e" d="M703.809,394.328a4.619,4.619,0,0,1,3.452-3.314c2.969-.794,4.418.034,4.763.414"
            transform="translate(-487.182 -353.744)"/>
      <path class="d"
            d="M633.274,418.315a17.45,17.45,0,0,0,6-1.715c1.029-.474-1.151-.355-1.151-.355a4.183,4.183,0,0,1,3.148-.651c1.393.178,1.09,1.834.061,2.485a21.03,21.03,0,0,1-6.3,2.189,7.093,7.093,0,0,1-2.543-.059s-.364-.946-.061-1.3A2.722,2.722,0,0,1,633.274,418.315Z"
            transform="translate(-453.52 -365.445)"/>
      <path class="e"
            d="M642.216,418.328a2.126,2.126,0,0,1-.242,1.6,5.821,5.821,0,0,1-2.967,2.012,10.213,10.213,0,0,1-3.391.887c-1.453,0-2.422-.3-2.967-1.3"
            transform="translate(-453.682 -366.759)"/>
      <path class="e" d="M632.152,418.5a5.326,5.326,0,0,1,4.037-3.786c3.472-.907,5.167.04,5.571.473"
            transform="translate(-453.448 -364.877)"/>
      <path class="d"
            d="M387.33,553.146s1.458.313,3.21.568c.719.1,1.488.2,2.226.26,2.537.207,10.3,1.087,12.322,1.708a13.943,13.943,0,0,1,6.368,3.935,28.927,28.927,0,0,1,2.692,3.469s.518.466.259.776-.984.414-2.744.363a75.763,75.763,0,0,1-10.251-.363c-6.058-.621-6.42-.466-8.284-1.035s-4.815-1.812-5.7-2.9-1.76-1.4-1.553-2.019a4.2,4.2,0,0,1,1.4-2.485,8.342,8.342,0,0,1,3.21-1.553"
            transform="translate(-337.498 -430.226)"/>
      <ellipse class="d" cx="18.224" cy="12.551" rx="18.224" ry="12.551"
               transform="translate(90.109 134.038) rotate(-71.814)"/>
      <ellipse class="d" cx="14.263" cy="7.638" rx="14.263" ry="7.638"
               transform="translate(217.934 82.539) rotate(-79.244)"/>
    </g>
  </g>
</svg>
