<svg data-name="Ebene 1" id="a73ac591-91fe-455a-9cae-c69422a4be43" viewBox="0 0 58.97 25.24"
     xmlns="http://www.w3.org/2000/svg">
  <defs>
    <style>.ac5e5b26-ad50-42d7-8715-19f2b4d9563e {
      fill: none;
      stroke: #fff;
      stroke-miterlimit: 10;
    }</style>
  </defs>
  <circle class="ac5e5b26-ad50-42d7-8715-19f2b4d9563e" cx="11.46" cy="20.74" r="4"/>
  <circle class="ac5e5b26-ad50-42d7-8715-19f2b4d9563e" cx="48.51" cy="20.7" r="4"/>
  <path class="ac5e5b26-ad50-42d7-8715-19f2b4d9563e"
        d="M60.69,30a4.22,4.22,0,0,0-1.87-2.46l-13.9-2c-1.46-1.68-8.36-6.46-8.65-6.71a1.63,1.63,0,0,0-.79-.27s-25.85,0-26.23,0a.61.61,0,0,0-.51.3L4.49,25,3,25.65v8.17a5.94,5.94,0,0,0,5.48,4.43,5.5,5.5,0,0,1,11,0v0l26,.06v-.08a5.5,5.5,0,0,1,11,0s0,.07,0,.11h.29s1.76-1.27,2.62-2A7.59,7.59,0,0,0,61,33.87,12.58,12.58,0,0,0,60.69,30Z"
        transform="translate(-2.53 -18)"/>
</svg>
