<svg data-name="Ebene 1" id="bdd4ee85-0dc6-48bb-9c16-e34080828192" viewBox="0 0 63.33 20.06"
     xmlns="http://www.w3.org/2000/svg">
  <defs>
    <style>.ee24eb79-8fc9-417f-95d2-b7e1600fe7ad {
      fill: none;
      stroke: #fff;
      stroke-miterlimit: 10;
    }</style>
  </defs>
  <circle class="ee24eb79-8fc9-417f-95d2-b7e1600fe7ad" cx="13.13" cy="15.56" r="4"/>
  <circle class="ee24eb79-8fc9-417f-95d2-b7e1600fe7ad" cx="52.08" cy="15.56" r="4"/>
  <path class="ee24eb79-8fc9-417f-95d2-b7e1600fe7ad"
        d="M62.85,33.88l-1.88-1a3.78,3.78,0,0,0-2.42-3.44l-4.33-.59L44.06,27.6S38,24,36.08,23.18a9.16,9.16,0,0,0-3.56-.71s-16.76-.07-18.45,0a4.42,4.42,0,0,0-2.47.68l-7.24,5L3,28.18a15.5,15.5,0,0,1-.42,2.57c-.29.94-2,1.46-2,1.46a5,5,0,0,0,1.82,3.64c1.11,1,5.27,1.33,5.27,1.33a5.5,5.5,0,1,1,11,0,.92.92,0,0,1,0,.16l28,.39a4.93,4.93,0,0,1,0-.55,5.5,5.5,0,0,1,11,0,5.36,5.36,0,0,1,0,.7h.3s3.09.38,4.12-.85A5.07,5.07,0,0,0,62.85,33.88Z"
        transform="translate(-0.03 -21.94)"/>
</svg>
