<svg data-name="Ebene 1" id="a780b3da-f5c0-4039-8a64-bbe332bc7120" viewBox="0 0 65.01 23.12"
     xmlns="http://www.w3.org/2000/svg">
  <defs>
    <style>.bb01b5a3-2040-4646-8c3d-45a5cbd7e5b0 {
      fill: none;
      stroke: #fff;
      stroke-miterlimit: 10;
    }</style>
  </defs>
  <circle class="bb01b5a3-2040-4646-8c3d-45a5cbd7e5b0" cx="13.91" cy="18.62" r="4"/>
  <circle class="bb01b5a3-2040-4646-8c3d-45a5cbd7e5b0" cx="53.88" cy="18.62" r="4"/>
  <path class="bb01b5a3-2040-4646-8c3d-45a5cbd7e5b0"
        d="M64.22,30.41c-.53-.7-2.6-.72-2.6-.72s0-1,0-2.15-.44-1.34-.44-1.34c-1.51-1.37-12.67-2.15-12.67-2.15s-5.3-4.13-6.89-5.27a6.81,6.81,0,0,0-3.52-1.17s-8.9,0-9.82,0-1,1.08-1,1.08l-.89,7s-22,0-22.74,0-.78,1-.78,1V29a1.62,1.62,0,0,1-.56,1A10.78,10.78,0,0,1,1,30.08a.52.52,0,0,0-.56.36S.25,32.78.86,33.7s5,2,5,2l2.21,0h.28s0-.08,0-.12a5.5,5.5,0,0,1,11,0v.06l28.89-.18a5.5,5.5,0,0,1,11-.06h.29c3.6-.51,4.55-1.59,4.55-1.59S64.75,31.11,64.22,30.41Z"
        transform="translate(0.09 -17.09)"/>
</svg>
