<svg data-name="Ebene 1" id="bdd7c3d2-0254-4163-a8da-1e8e06c60e82" viewBox="0 0 58.94 19.19"
     xmlns="http://www.w3.org/2000/svg">
  <defs>
    <style>.a507f868-7eee-4d3a-9aae-a2380daba565 {
      fill: none;
      stroke: #fff;
      stroke-miterlimit: 10;
    }</style>
  </defs>
  <circle class="a507f868-7eee-4d3a-9aae-a2380daba565" cx="11.23" cy="14.69" r="4"/>
  <circle class="a507f868-7eee-4d3a-9aae-a2380daba565" cx="47.99" cy="14.69" r="4"/>
  <path class="a507f868-7eee-4d3a-9aae-a2380daba565"
        d="M60.08,35.75l-1.14-3.28c-1.42-1.21-15.71-2.2-15.71-2.2a18.32,18.32,0,0,0-6.18-3.86s-2.5-.25-1.19,0,4.94,4.39,4.94,4.39H33.41s-1.15-2.13-1.31-2.27a2.13,2.13,0,0,0-.8-.18c-.35-.1-.63.59-.63.59l0,1.92H24.44l-1.12-2a1.83,1.83,0,0,0-.82-.49c-.43-.08-.76.48-.76.48l0,1.79s-13-.13-14.19-.1a1.61,1.61,0,0,0-1.48,1.06L5.7,34.71a5.28,5.28,0,0,0-1.06,0,.6.6,0,0,0-.62.73s.86,2.74,1,3.13,3.85,1.35,3.85,1.35h.32a5.5,5.5,0,0,1,11,.26L46,40.74c0-.11,0-.21,0-.32a5.5,5.5,0,0,1,11,0,5.44,5.44,0,0,1,0,.57h.14l.38-.25L61.68,39l.24-2.41Z"
        transform="translate(-3.51 -25.8)"/>
</svg>
