<svg data-name="Ebene 1" id="b79d19b2-f381-4854-8dd0-b8632d94fbf6" viewBox="0 0 48.59 25.18"
     xmlns="http://www.w3.org/2000/svg">
  <defs>
    <style>.a02e4777-b2d0-416b-8ce4-7c3666ba44af {
      fill: none;
      stroke: #fff;
      stroke-miterlimit: 10;
    }</style>
  </defs>
  <circle class="a02e4777-b2d0-416b-8ce4-7c3666ba44af" cx="11.52" cy="20.68" r="4"/>
  <circle class="a02e4777-b2d0-416b-8ce4-7c3666ba44af" cx="40.37" cy="20.68" r="4"/>
  <path class="a02e4777-b2d0-416b-8ce4-7c3666ba44af"
        d="M55.31,29.7c-.2-.73-1.21-1-1.21-1s0-3.83,0-5-1.36-1.35-1.36-1.35H41.4s-4.7-6.24-5.35-6.91a1.85,1.85,0,0,0-1.36-.63H14.24a1.15,1.15,0,0,0-1.12,1s-1,7.21-1.34,8.14-1.39,0-1.39,0V22a1.52,1.52,0,0,0-2.57,0v9c1.08.47.87.52,1.28,1.34S13,34.45,13,34.45h.38a5.5,5.5,0,0,1,11,.17l17.74.28h0a5.5,5.5,0,0,1,11,0,1,1,0,0,1,0,.17h.12l.37-.16a2.7,2.7,0,0,0,1.72-1.09A28,28,0,0,0,55.31,29.7Z"
        transform="translate(-7.32 -14.38)"/>
</svg>
