<svg data-name="Ebene 1" id="a4e26672-19de-46ab-a489-69e9e2f97be7" viewBox="0 0 48.52 28.12"
     xmlns="http://www.w3.org/2000/svg">
  <defs>
    <style>.a2874bf8-a0df-4fe9-bd6b-6d28462b8ebe {
      fill: none;
      stroke: #fff;
      stroke-miterlimit: 10;
    }</style>
  </defs>
  <circle class="a2874bf8-a0df-4fe9-bd6b-6d28462b8ebe" cx="7.2" cy="23.62" r="4"/>
  <circle class="a2874bf8-a0df-4fe9-bd6b-6d28462b8ebe" cx="40.62" cy="23.62" r="4"/>
  <path class="a2874bf8-a0df-4fe9-bd6b-6d28462b8ebe"
        d="M58.13,39.08c-.28-2.57-1.21-3.1-1.21-3.1L57,33.6c-.68-1.55-5.26-5.12-5.26-5.12l-1.43-.06C45.24,23.4,36.78,19,36.78,19l-2-.39c-5.15-1.11-14.95-.22-14.95-.22a35.43,35.43,0,0,0-3.61.14c-.46.15-.21.43-.21.43l.83.87c-1.58,1.33-4.16,7.54-4.16,7.54L12.45,32c-.86.49-.94,1-.94,1a37.34,37.34,0,0,0-.86,5.56c-.08,2.21.9,2,.9,2h.31a5.5,5.5,0,0,1,11,.42l22.49.87a6.32,6.32,0,0,1-.06-.75,5.5,5.5,0,1,1,10.88,1.16h.19l.72.59A4.45,4.45,0,0,0,58.13,39.08Z"
        transform="translate(-10.15 -17.52)"/>
</svg>
