<svg data-name="Ebene 1" id="b08d9073-f9c6-48ae-8dc0-f8ecba859ed0" viewBox="0 0 55.42 21.84"
     xmlns="http://www.w3.org/2000/svg">
  <defs>
    <style>.bb984521-defe-4230-b5d9-defb21fcf00f {
      fill: none;
      stroke: #fff;
      stroke-miterlimit: 10;
    }</style>
  </defs>
  <circle class="bb984521-defe-4230-b5d9-defb21fcf00f" cx="8.61" cy="17.34" r="4"/>
  <circle class="bb984521-defe-4230-b5d9-defb21fcf00f" cx="44.88" cy="17.34" r="4"/>
  <path class="bb984521-defe-4230-b5d9-defb21fcf00f"
        d="M56.46,36.73l-1-.85s.14-3.26-3.83-4.68S41,29.74,41,29.74c-2.08-3.12-6.67-6.38-6.67-6.38H8.92l-.09,1.51s-2.46,3.45-3,3.5-2.22,3.26-2.22,3.26.09,2.55-.52,2.83-.9,1.61-.9,1.61l0,2.46c.09,1.46,2.36,2.08,2.36,2.08h.31c0-.17,0-.34,0-.51a5.5,5.5,0,0,1,11,0,6.48,6.48,0,0,1-.06.77l25.37.61A5.74,5.74,0,0,1,41,40a5.5,5.5,0,0,1,11,0,5.65,5.65,0,0,1-.29,1.76H52l.71-.19s2.78.14,3.54-1.18S56.46,36.73,56.46,36.73Z"
        transform="translate(-1.71 -22.86)"/>
</svg>
